<svg width="35" height="35" viewBox="0 0 35 35" fill="none" xmlns="http://www.w3.org/2000/svg">
<g clip-path="url(#clip0)">
<path d="M27.8223 2.80273H7.17773C3.21983 2.80273 0 6.02257 0 9.98047V21.5295C0 25.4874 3.21983 28.7072 7.17773 28.7072H8.24291L10.7394 31.8744C10.934 32.1212 11.2307 32.2651 11.5447 32.2651C11.8587 32.2651 12.1557 32.1212 12.3501 31.8744L14.8465 28.7072H27.8223C31.7802 28.7072 35 25.4874 35 21.5295V9.98047C35 6.02257 31.7802 2.80273 27.8223 2.80273V2.80273Z" fill="#6787F5"/>
<path d="M27.8223 2.80273H17.5V28.7072H27.8223C31.7802 28.7072 35 25.4874 35 21.5295V9.98047C35 6.02257 31.7802 2.80273 27.8223 2.80273Z" fill="#38478A"/>
<path d="M13.6553 30.2186L14.8465 28.7072L13.6553 30.2186Z" fill="white"/>
<path d="M35 11.2283H26.3784L32.7962 4.81052C31.5051 3.56804 29.7515 2.80273 27.8223 2.80273H26.1034L22.0283 6.87786V2.80273H12.972V6.87786L8.89687 2.80273H7.17773C5.24845 2.80273 3.49487 3.56804 2.20379 4.81052L8.62156 11.2283H0V20.2846H8.62156L2.44465 26.4612L2.20512 26.7007C3.49621 27.9427 5.24925 28.7072 7.17773 28.7072H8.24291L8.53237 29.0744L12.862 24.7445L12.7917 28.7072H22.028V24.6462L26.0756 28.7072H27.8223C29.7425 28.7072 31.4888 27.9494 32.7781 26.717L32.5367 26.4746L26.3672 20.2846H35V11.2283Z" fill="white"/>
<path d="M35 11.2283H26.3784L32.7962 4.81052C31.5051 3.56804 29.7515 2.80273 27.8223 2.80273H26.1034L22.0283 6.87786V2.80273H17.5V28.7072H22.028V24.6462L26.0756 28.7072H27.8223C29.7425 28.7072 31.4888 27.9494 32.7781 26.717L32.5367 26.4746L26.3672 20.2846H35V11.2283Z" fill="#C7D3ED"/>
<path d="M19.9772 13.2791V2.80273H15.0228V13.2791H0V18.2338H15.0228L14.8465 28.7072H19.9772V18.2338H35V13.2791H19.9772Z" fill="#FF337A"/>
<path d="M19.9772 13.2791V2.80273H17.5V28.7072H19.9772V18.2338H35V13.2791H19.9772Z" fill="#D1005B"/>
<path d="M13.6553 11.9116V10.4617L6.08025 2.88658C5.30347 3.00621 4.56727 3.25108 3.89302 3.59955L12.2054 11.9116H13.6553Z" fill="#FF337A"/>
<path d="M31.107 3.59955C30.4327 3.25108 29.6965 3.00621 28.9198 2.88658L21.3447 10.4617V11.9116H22.7946L31.107 3.59955Z" fill="#D1005B"/>
<path d="M3.89488 27.9115C4.5694 28.2597 5.3056 28.5043 6.08265 28.6239L13.6553 21.0509V19.601H12.2054L3.89488 27.9115Z" fill="#FF337A"/>
<path d="M21.3447 19.601V21.0552L28.8914 28.6276C29.6698 28.5107 30.4079 28.2687 31.084 27.9224L22.7906 19.601H21.3447Z" fill="#D1005B"/>
</g>
<defs>
<clipPath id="clip0">
<rect width="35" height="35" fill="white"/>
</clipPath>
</defs>
</svg>
